<?xml version="1.0" encoding="utf-8"?>
<!-- Generator: Adobe Illustrator 22.1.0, SVG Export Plug-In . SVG Version: 6.00 Build 0)  -->
<svg version="1.1" id="Registration" xmlns="http://www.w3.org/2000/svg" xmlns:xlink="http://www.w3.org/1999/xlink" x="0px"
	 y="0px" viewBox="0 0 470 303" style="enable-background:new 0 0 470 303;" xml:space="preserve">
<style type="text/css">
	.st0{fill:#ED1F87;stroke:#3E4858;stroke-width:2;stroke-miterlimit:10;}
	.st1{font-family:'PorkysHeavy';}
	.st2{font-size:72px;}
	.st3{fill:#2CB460;stroke:#3E4858;stroke-width:2;stroke-miterlimit:10;}
	.st4{fill:#FDB930;stroke:#3E4858;stroke-width:2;stroke-miterlimit:10;}
	.st5{fill:#F7921E;stroke:#3E4858;stroke-width:2;stroke-miterlimit:10;}
	.st6{fill:#F47820;stroke:#3E4858;stroke-width:2;stroke-miterlimit:10;}
	.st7{fill:#EE1C4E;stroke:#3E4858;stroke-width:2;stroke-miterlimit:10;}
	.st8{fill:#2C3C97;stroke:#3E4858;stroke-width:2;stroke-miterlimit:10;}
	.st9{stroke:#3E4858;stroke-width:2;}
	.st10{fill:#32AD4A;stroke:#3E4858;stroke-width:2;stroke-miterlimit:10;}
	.st11{fill:#E41A50;stroke:#3E4858;stroke-width:2;stroke-miterlimit:10;}
	.st12{fill:#4159A8;stroke:#3E4858;stroke-width:2;stroke-miterlimit:10;}
	.st13{fill:#EE2C3B;stroke:#3E4858;stroke-width:2;stroke-miterlimit:10;}
	.st14{fill:#FED234;}
	.st15{fill:#EE2C3B;stroke:#3A4653;stroke-width:2;}
	.st16{fill:#3D4858;}
	.st17{fill:none;}
	.st18{fill:#EE2C3B;}
	.st19{fill:#FED234;stroke:#3C4858;stroke-width:2;}
	.st20{fill:#3E4858;stroke:#3E4858;stroke-width:0.5;}
	.st21{font-family:'InkFree';}
	.st22{font-size:43px;}
	.st23{fill:#4259A8;}
	.st24{fill:#E9278E;}
	.st25{fill:#3E4858;}
	.st26{fill:none;stroke:#3E4858;}
	.st27{stroke:#3E4858;stroke-width:0.75;}
	.st28{font-family:'Boogaloo-Regular';}
	.st29{font-size:10.8666px;}
	.st30{fill:none;stroke:#3E4858;stroke-width:2;}
</style>
<text transform="matrix(1 0 0 1 5 253)"><tspan x="0" y="0" class="st0 st1 st2">S</tspan><tspan x="39.7" y="0" class="st3 st1 st2">P</tspan><tspan x="79.2" y="0" class="st4 st1 st2">A</tspan><tspan x="122.2" y="0" class="st5 st1 st2">R</tspan><tspan x="164.4" y="0" class="st6 st1 st2">T</tspan><tspan x="196.7" y="0" class="st7 st1 st2">A</tspan><tspan x="239.7" y="0" class="st8 st1 st2">N</tspan><tspan x="290.7" y="0" class="st9 st1 st2"> </tspan><tspan x="311.3" y="0" class="st10 st1 st2">K</tspan><tspan x="355" y="0" class="st11 st1 st2">I</tspan><tspan x="372.7" y="0" class="st12 st1 st2">D</tspan><tspan x="421.7" y="0" class="st13 st1 st2">S</tspan></text>
<path class="st14" d="M-110.5,82.5c0.9-1.5,2.6-3.3,4.2-1.2c1.5,1.9,1.1,5.6,1.4,7.9"/>
<path class="st15" d="M116.2,363.8"/>
<g>
	<path class="st16" d="M415.2,199.7c-25.3-23.1-54.4-41.6-85.9-54.1c-15.7-6.2-32-11-48.6-14.2c-16.6-3.2-33.4-4.9-50.3-4.9
		c-16.9-0.1-33.7,1.5-50.3,4.6l-6.2,1.3l-3.1,0.6c-1,0.2-2.1,0.4-3.1,0.7l-6.1,1.6l-3.1,0.8l-1.5,0.4l-1.5,0.5l-6.1,1.9
		c-2,0.6-4.1,1.2-6,1.9l-6,2.1c-2,0.7-4,1.4-5.9,2.2c-31.5,12.3-60.7,30.7-86.2,53.7c23.1-25.3,51.9-45.8,83.8-59.5
		c2-0.9,4-1.7,6-2.5l6-2.4c1-0.4,2-0.8,3.1-1.1l3.1-1l6.2-2.1l1.5-0.5l1.6-0.4l3.1-0.9l6.3-1.8c1-0.3,2.1-0.6,3.2-0.8l3.2-0.7
		l6.4-1.4c17-3.5,34.4-5.2,51.8-5.2c17.4,0.1,34.8,1.9,51.8,5.4c17,3.6,33.6,8.8,49.5,15.8C363.5,153.7,392.2,174.2,415.2,199.7z"/>
</g>
<path class="st17" d="M42-84c0-92.5,74.9-167.4,167.4-167.4"/>
<path class="st18" d="M-147.7,162.8c8.8-17.2,20.4-33.5,24-52.8c-4.8,10.1-11.3,22.4-20,29.8c-4.5-9.3,7.2-27.9,10.6-36.7
	c6-15.8,13.6-33.9,27.1-44.8c24.8-20.1,40.1-15.8,50.2,12.1s21.1,82.9,11.1,81.9c-10-1.1-26.4,14.3-36.4,6.9c-6.1-4.5-12.3-1.5-18,2
	c-12.8,7.9-16.2-3.8-13.7-14.1c0.5-2.3,1.2-4.6,1.5-6.9c-1.5,10.2-8.2,19.7-16.9,25.1C-131.3,166.9-153.1,173.3-147.7,162.8z"/>
<path class="st19" d="M-98.4,164.1c-1.8-4.2-0.1-11.3,0.1-15.2c0.3-7,0.5-13.9,0.7-20.9c0.5-13.9,0.9-27.9,1.3-41.8
	c0,0-3.7-21.1-10,27.5c0,0-26.4,12.7-15.8-21.7c2.5-5.6,5.1-11.1,7.9-16.5c1.5-2.9,3.1-5.8,4.8-8.7c0.7-1.2,1.4-2.4,2.2-3.5
	c1-1.5,2.6-2.7,3.3-4.4c0.3-0.7,0.4-1.4,0.4-2.1c0-1-0.1-2.2-0.9-2.9c-0.5-0.4-1.1-0.6-1.7-0.7c-2.3-0.2-4.2,1-6.4,1.4
	c-3.3,0.7-6.7,0.1-9.9-0.5c-4.4-0.9-8.8-2.4-12.2-5.3c-4.1-3.5-5.9-8.6-5.8-13.9c0.3-9.5,5.3-18.7,10.2-26.6
	c0.4-0.6,0.8-1.3,1.2-1.9c3.3-5.1,6-10.6,10.4-15c0.2,2.5,0.4,5,0.4,7.5c0.4-3.7,3-6.5,5.4-9.1c2.4-2.6,5.5-4.7,8.2-6.9
	c0,4.3,0,8.6,0,12.9c0,8.4,4.9,6.9,10.6,10.9c7.1,4.9,11.8,13,10.4,21.8c0,0,1.6,17.4,8.5-15.8s23.8-16.9,16.9,6.9
	c-1.7,5.8-3.2,11.6-4.5,17.5c-1.7,7.8-5.4,15.3-4.9,23.5c0.6,8.8,3.4,17.4,4.2,26.3c0.9,9.7,1.3,19.5,1.3,29.2c0,4,0,8-0.1,11.9
	c-0.1,2.5-1.2,5.8-0.1,8.2c1.1,2.4,8.4,4.4,7.1,7.6c-0.3,0.8-1.1,1.4-1.9,1.9c-4.2,2.7-10.3,6.6-15.3,3.8c-4.8-2.6-4.8-2.6-4.8-2.6
	s-10.6,1.1,0,22.2c0.5,1.1-5.4,2.6-5.8,2.6c-4.6,0.4-11.1-2.5-14.2-5.8C-97.8,165.4-98.1,164.8-98.4,164.1z"/>
<text transform="matrix(1 0 0 1 42 293)" class="st20 st21 st22">pre-school &amp; daycare</text>
<path class="st23" d="M284.1,174.5c0.5-0.6,0.5-1.4,1.1-1.7c1.8-1,2.6-2.8,3.9-4.3c0.4-0.5,0.3-1.2,0-1.8c-0.8-1.5-1.6-3-2.5-4.4
	c-1.4-2.2-2.6-4.6-3.3-7.1c-0.4-1.3-0.1-1.8,1.4-1.7c1.8,0.2,2.5-0.4,2.5-1.9c0.1-4.3,0.2-8.5,0.9-12.8c0.1-0.8,0.3-1.5,1-1.9
	c1.2-0.7,1.3-1.7,0.9-2.9c-1.5-4.5-3.2-8.9-4.4-13.5c-0.9-3.6-0.7-7.2-0.5-10.7c0-0.4,0.1-1,0.7-1.1c0.5-0.1,0.8,0.4,1.1,0.7
	c1.3,1.5,2.1,3.3,3.1,5c1.6,2.8,3.1,5.7,2.2,9.2c-0.2,0.7,0,1.5,0.1,2.3c0.3,2.3,1.2,4.6,0.2,6.9c-0.1,0.3-0.1,0.7-0.1,1.1
	c0,0.8,0.5,3.9,1.6,4c1.1,0.1,1.1-2.7,1.3-3.8c0.1-0.4,0.1-0.7,0.2-1.1c0.1-0.6,0.9-0.6,1,0c0,0,0,0,0,0c0.4,1.8,0.8,3.7,1.3,5.5
	c0.2,0.9,0.9,1.3,1.8,1c0.9-0.2,1-0.9,1-1.7c0-0.4-1.1-3-0.4-3.2c0.7-0.2,1.4,2.5,1.6,3c0.1,0.2,0.2,0.5,0.3,0.7
	c0.4,0.8,0.8,1.3,1.8,1c0.9-0.3,1.1-1,1.1-1.8c0-0.6-0.2-1.1-0.5-1.6c-0.2-0.4-1.6-2.7-1.1-3.1c0.6-0.4,1.9,2,2.3,2.3
	c0.1,0.1,0.3,0.3,0.4,0.5c0.5,0.7,1.1,1.1,1.8,0.5c0.7-0.6,1.2-1.2,0.6-2.2c-1.2-2-2.4-3.9-3.8-5.8c-0.9-1.2-1-2.5-0.9-4
	c0.1-1.1,0.6-1.7,1.8-1.6c1.3,0.1,2.5-0.1,3.7-0.8c0.8-0.5,1.6-0.9,1.4-2c-0.2-1.1-1.3-1.3-2.1-1.1c-2.4,0.4-4.7-0.2-7.1-0.4
	c-1.1-0.1-1.6-0.6-1.8-1.7c-0.3-1.7-0.6-3.4-1.1-5c-1.6-4.9-4-9.4-6.1-14.1c-0.9-2-1.8-4.1-2.5-6.1c-0.4-1.1-0.2-2.2,0.8-3.1
	c0.9-0.9,2-0.8,3.1-0.4c1.2,0.4,2.4,0.6,3.7,0.6c4.5-0.3,9-1.2,13-3.3c7.9-4.2,13.2-10.5,14.9-19.7c0.8-4.3,0.2-8.2-1-12.1
	c-1-3.5-2.9-6.7-4.9-9.7c-2.6-3.8-5.6-7.1-9.4-9.7c-0.8-0.5-1.6-0.9-2.6-0.9c-0.7,0-1.2,0.1-1.3,0.9c-0.1,1.3-0.9,0.9-1.5,0.5
	c-1.9-1.4-4-1.5-6.2-1.4c-1.2,0-1.6,0.6-0.9,1.6c0.7,1.1,0.4,1.2-0.7,1.1c-0.4-0.1-0.9-0.1-1.3-0.1c-7.4,0.4-12.8,4.4-17.6,9.6
	c-1,1.1-1.2,2.3-0.3,3.6c1.5,2.2,1.9,4.5,0.3,6.9c-1.5,2.4-3,4.8-4.4,7.2c-1,1.8-1.9,3.8-1.1,6c1,3,2,6,3.4,8.9
	c0.4,0.8,1.1,1.5,1.1,2.5c0,0.3,0.2,0.7-0.2,1c-0.3,0.2-0.6-0.1-0.8-0.2c-2.2-1.2-4.2-2.9-5.8-4.8c-4.4-5.1-8.1-10.7-10.9-16.8
	c-0.4-0.9-0.2-1.9,0.4-2.6c1.9-2,3.3-4.3,5.7-5.8c0.6-0.4,0.8-1.1,0.6-1.8c-0.2-0.8-0.9-0.7-1.5-0.8c-1.5-0.1-2.5,0.8-3.6,1.5
	c-2.1,1.5-3.1,1.2-4.2-1.2c-1.2-2.5-0.6-5.4-1.6-8c-0.4-1.2-0.8-2.2-2-2c-1.3,0.1-1.2,1.3-1.1,2.3c0,0.4,1.3,3.6,0.4,3.9
	c-0.9,0.3-3.1-3-3.7-3.2c-2.5-1.1-1.5,2.6,0.2,4c1.3,1.1,2.1,3.8-0.3,1.7c-2.2-1.9-5-3.6-5.1-2c0,0.6,2.4,1.8,3.7,3.9
	c1.1,1.6,0.4,1.5-0.9,0.5c-0.6-0.5-1.3-0.9-2-1.2c-0.7-0.3-1.5-0.3-2,0.4c-0.5,0.8-0.1,1.5,0.4,2.1c0.2,0.2,0.5,0.4,0.8,0.5
	c1.6,1.1,3,2.2,3.9,4c0.7,1.6,1.7,3.1,3.2,4.2c0.8,0.6,1.2,1.5,1.3,2.4c0.1,1.9,0.1,3.9,0.5,5.7c0.7,3.1,1.4,6.3,2.6,9.3
	c1.9,4.9,4.1,9.6,7.5,13.7c2.1,2.5,2.9,5.3,1.3,8.3c-2.3,4.4-4.7,8.7-6.2,13.5c-1.3,4.2-2.5,8.4-2.6,12.8c0,1.8,0.1,3.6-0.1,5.4
	c-0.3,3,0,3.8,2.6,5.4c0.7,0.4,1.4,0.8,1.4,1.7c0,2.1,0.7,4,1,6.1c0.4,3.2,1.2,6.4,2.2,9.4c0.3,1,0.9,1.8,2,1.3
	c0.8-0.4,1.7-0.5,2.4-1c1-0.7,1.3-0.3,1.5,0.7c0.8,2.9,1.7,5.7,2.6,8.6c3.3,4.6,3.4,13.9,0.2,13.1c0,0-4.6,3.7-3,5
	C270,182.7,276.4,183,284.1,174.5z"/>
<path class="st24" d="M168.6,180.4c-1.5-1.5-1.7-3.2-0.9-5.2c1.5-3.7,2.8-7.4,4.3-11c0.3-0.8,0.7-1.7,1.1-2.5c0.5-1.1,0.5-2-0.9-2.4
	c-4-1.2-7.5-3.5-11.2-5.3c-0.6-0.3-1.1-0.1-1.6,0.3c-1,0.8-2.2,1.6-3.2,2.4c-1.7,1.3-3.7,1.3-5.7,1.5c-0.9,0.1-1.4-0.4-1.4-1.4
	c0.1-3.7,0.9-7.1,3-10.2c0.5-0.7,1.1-1.3,1.4-2c0.8-1.6,2-1.9,3.5-1.4c3.5,1.2,7,2.4,10.5,3.6c2.4,0.9,2.8,0.2,2.6-3.3
	c0-1.1,0.1-2.2,0.2-3.3c0.2-1.5-0.2-2.1-1.5-2.2c-2.2-0.2-4.4-0.6-6.5-1.1c-1.8-0.5-2.2-0.8-1.6-2.7c0.8-2.8,1.8-5.5,2.7-8.3
	c1.3-3.9,2.3-7.9,2.8-12c0.2-1.7-4.2-3.4-4.4-5.2c-0.1-0.4,3.8-0.9,3.3-1c-0.4-0.1-0.7,0.3-0.9,0.6c-1.7,2.2-3,4.6-4.2,7.1
	c-0.3,0.5-0.5,1.1-0.8,1.6c-0.6,1.3-1.1,2.6-0.7,4.2c0.6,2.2,0.4,4.4-0.3,6.6c-0.5,1.5-0.5,2.9,0,4.4c0.4,1.3,0.6,2.6,0.6,4
	c0,0.9-0.4,1.6-1.4,1.6c-1,0-1.7-0.4-1.8-1.4c-0.1-0.9-0.3-1.8-0.6-2.7c-0.1-0.3-0.2-0.7-0.6-0.7c-0.4,0-0.4,0.4-0.5,0.8
	c-0.4,1.7-0.6,3.4-1.1,5c-0.4,1.1-1,1.4-2.1,1.2c-1.2-0.2-1.3-1.1-1.2-2.1c0.1-0.6,0.8-4.2,0.1-4.4c-0.9-0.2-0.7,3.7-1.1,4.4
	c-0.2,0.4-0.3,1-0.5,1.3c-0.4,0.6-1.1,0.9-1.9,0.7c-0.8-0.2-1.1-0.8-1.2-1.6c0-0.5,0.1-1.1,0.2-1.6c0.1-0.3,1.8-3.2,1.5-3.4
	c-0.4-0.3-2.4,2.4-2.6,2.7c-0.7,0.8-1.6,1.1-2.4,0.3c-0.9-0.9-0.6-1.9-0.1-3c1.2-2.4,3.1-4.4,4.2-6.9c1.1-2.7,0.4-4.1-2.6-4.3
	c-1.2,0-2.3-0.4-3.3-1.1c-0.8-0.6-0.9-1.3-0.7-2.1c0.2-0.9,1-1,1.7-0.9c2.7,0.3,5.3,0,7.9-0.7c0.9-0.2,1.5-0.4,1.7-1.4
	c0.7-4.9,2.8-9.3,4.7-13.9c1.6-3.9,3.9-7.4,5-11.5c0.3-1.1,0.1-1.7-0.9-2.3c-0.9-0.5-1.7-0.8-2.8-0.7c-5.2,0.7-10.1-0.1-14.6-2.8
	c-1.8-1.1-2-1-2.9,1c-2.2,4.5-6.5,5.3-11.1,5.2c-2.6-0.1-5.2-0.4-7.7-1.2c0-1.2,0-1.1-0.1-2.3c2.7-1,5.5-1.8,7.7-3.9
	c1.9-1.8,1.3-4.6,0-6.1c-1.8-2.1-3.7-4-5.3-6.3c-3-4.2-2.5-9.3,0.2-13.1c1.1-1.5,2.8-2.3,4.5-2.2c3,0.2,3.8-1.6,4.5-3.8
	c1.2-4.3,3.8-7.6,7.3-10.1c2.4-1.8,5.4-2.8,8.4-3.5c4.6-1,9.2-0.9,13.8,0.1c3.7,0.8,7,2.4,10.3,4.1c0.5,0.3,0.5,0.8,0.5,1.3
	c-0.1,0.6-0.4,1-1,1c-1.6,0.2-1.5,0.9-0.7,2.1c1.3,1.9,1.6,4.2,2,6.3c0.6,3.1,2.5,5.1,4.7,6.9c3.8,3.3,4.9,7.2,3.4,11.9
	c-0.2,0.6-0.7,1.3,0,1.8c0.8,0.4,1.3-0.4,1.7-0.9c4.4-5.4,8.2-11.2,11.1-17.5c0.3-0.6,0.2-1-0.3-1.4c-2.2-2.1-3.4-5.2-6.4-6.5
	c-0.7-0.3-1-1.3-0.8-2.1c0.2-0.8,1-0.8,1.7-0.9c1.5-0.2,2.6,0.6,3.7,1.3c2.5,1.6,3.8,1.1,4.8-1.6c0.7-2.2,0.9-4.4,1.2-6.7
	c0.1-0.9,0.4-1.7,0.9-2.4c0.4-0.7,1.1-1.1,1.9-0.8c0.9,0.3,1.1,1,1.1,1.8c0,0.9-0.5,4,0,5.1c0.8-0.5,0.9-3.4,1-4.1
	c0.2-1.5,1.2-2,2.5-2c1.3,0,1,3.2,0.9,3.7c-0.1,0.2-1.7,3.6-1.7,3.8c0.4,0.3,2.4-3,2.7-3.3c3-2.9,3.4-1.7,2,1.9
	c-0.3,0.6-0.4,1.2-0.7,1.8c-0.2,0.4-0.5,0.9,0.1,1.3c0.5,0.3,1,0.2,1.3-0.3c0.4-0.5,3.1-1.4,3.5-0.5c0.4,0.9-1.3,3.6-1.8,3.8
	c-3.3,1.3-4.8,4.2-6.3,7.1c-0.4,0.7-0.9,1.3-1.5,1.6c-1.3,0.6-1.7,1.6-1.7,3c-0.4,6.8-2.1,13.2-4.7,19.5c-1.3,3.2-3.3,5.9-4.8,8.9
	c-0.9,1.7-2.6,2.9-3.3,4.7c-0.5,1.2-0.7,2.3-0.3,3.6c0.7,2.1,1.6,4.1,2.8,6c2,3.1,3.1,6.5,4.4,9.9c1.1,2.8,2.2,5.6,3,8.5
	c1,3.3,1.5,6.6,1.9,10c0.2,2.2,0.2,3.8,0.1,4.7c-0.2,2.2-0.9,2.7-3.1,2.9c-2.1,0.2-4.2,0.5-6.3,0.6c-1,0.1-1.3,0.6-1.3,1.5
	c0,4.9-1.6,9.5-2.8,14.2c-1.8,7.1-4.5,13.8-6.1,21c-0.2,1.1-0.2,1.8,0.1,2.3c0,0,0.6,0.7,2,1.4c0,0,6.8,5.4-13.1,1.3H168.6z"/>
<g>
	<path class="st25" d="M337.7,192.6c-4.1,0-8.2-1.5-11.5-4.2c-3.3-2.7-5.7-6.8-6.2-11.5c-0.3-2.3-0.1-4.7,0.6-7.1
		c0.7-2.3,1.9-4.6,3.5-6.5c3.3-3.8,8.4-6.2,13.5-6.2c2.6,0,5.2,0.6,7.5,1.6c2.3,1.1,4.4,2.6,6.1,4.5c1.7,1.9,2.9,4.1,3.6,6.5
		c0.7,2.3,0.9,4.8,0.6,7.1c-0.5,4.7-3,8.8-6.2,11.5C345.9,191.1,341.8,192.6,337.7,192.6z M337.7,192.6c4.1,0,8.2-1.9,10.7-5
		c1.3-1.5,2.2-3.3,2.7-5.2c0.5-1.9,0.6-3.8,0.3-5.6c-0.5-3.6-2.5-6.7-5-8.7c-2.5-2-5.6-3.1-8.7-3.1c-3.1,0-6.1,1-8.7,3
		c-2.5,2-4.5,5.1-5,8.7c-0.3,1.8-0.2,3.7,0.3,5.6c0.5,1.8,1.4,3.6,2.7,5.2C329.5,190.7,333.6,192.6,337.7,192.6z"/>
</g>
<g>
	<path class="st25" d="M371.6,181.7c0,1.3-0.5,2.5-1.4,3.5c-0.9,0.9-2.1,1.6-3.5,1.6c-1.3,0.1-2.7-0.4-3.7-1.4
		c-1-0.9-1.6-2.3-1.6-3.7c0-1.4,0.6-2.8,1.6-3.7c1-0.9,2.4-1.4,3.7-1.4c1.3,0.1,2.6,0.7,3.5,1.6
		C371.2,179.2,371.7,180.4,371.6,181.7z M371.6,181.7c0-1.3-0.5-2.5-1.5-3.4c-0.9-0.8-2.2-1.3-3.4-1.2c-2.5,0.1-4.4,2.3-4.3,4.6
		c-0.1,2.3,1.9,4.5,4.3,4.6c1.2,0.1,2.4-0.4,3.4-1.2C371.1,184.2,371.6,182.9,371.6,181.7z"/>
</g>
<circle class="st26" cx="319.5" cy="152.5" r="2.5"/>
<circle class="st26" cx="135.3" cy="153.8" r="1.3"/>
<circle class="st26" cx="101.5" cy="174.3" r="2.5"/>
<circle class="st26" cx="203.6" cy="170.2" r="1.6"/>
<circle class="st26" cx="230.7" cy="141.8" r="1.8"/>
<g>
	<path class="st25" d="M240.1,166.7c0,1.5-0.5,2.9-1.4,4.1c-0.9,1.2-2.4,2.2-4.1,2.4c-1.7,0.3-3.7-0.2-5.2-1.4
		c-1.5-1.2-2.4-3.2-2.4-5.2c0-2,0.9-4,2.4-5.2c1.5-1.2,3.5-1.7,5.2-1.4c1.7,0.3,3.2,1.2,4.1,2.4
		C239.6,163.8,240.1,165.3,240.1,166.7z M240.1,166.7c0-1.5-0.7-2.9-1.8-3.8c-1.1-0.9-2.6-1.1-3.8-0.8c-1.2,0.3-2.1,1-2.7,1.9
		c-0.6,0.8-0.9,1.8-0.9,2.7c0,0.9,0.3,1.9,0.9,2.7c0.6,0.8,1.5,1.6,2.7,1.9c1.2,0.3,2.6,0,3.8-0.8
		C239.3,169.6,240.1,168.2,240.1,166.7z"/>
</g>
<g>
	<path class="st25" d="M135.1,186.2c-1.9,0.5-3.9,0.4-5.7-0.4c-1.8-0.8-3.5-2.4-4.3-4.4c-0.4-1-0.7-2.1-0.6-3.3
		c0-1.2,0.3-2.3,0.8-3.4c1-2.2,3-3.9,5.4-4.6c2.4-0.7,5-0.3,7,1.1c2,1.3,3.3,3.5,3.6,5.7c0.3,2.2-0.2,4.4-1.4,6
		C138.6,184.5,136.9,185.7,135.1,186.2z M135.1,186.2c1.9-0.5,3.4-1.9,4.2-3.6c0.8-1.7,0.7-3.7-0.1-5.2c-0.7-1.5-2-2.6-3.4-3.2
		c-1.4-0.6-2.9-0.6-4.2-0.3c-1.4,0.4-2.6,1.2-3.5,2.4c-0.9,1.2-1.4,2.8-1.2,4.5c0.2,1.7,1.1,3.4,2.7,4.5
		C131.1,186.4,133.2,186.8,135.1,186.2z"/>
</g>
<g>
	<path class="st25" d="M78.1,189.5c0,1.6-1.3,3.2-3,3.3c-0.9,0.1-1.8-0.2-2.4-0.8c-0.7-0.6-1.1-1.5-1.1-2.4c0-0.9,0.4-1.8,1.1-2.5
		c0.7-0.6,1.6-0.9,2.5-0.8C76.8,186.4,78.1,187.9,78.1,189.5z M78.1,189.5c0-0.8-0.4-1.6-0.9-2.1c-0.6-0.5-1.4-0.8-2.1-0.7
		c-1.5,0.1-2.6,1.5-2.5,2.8c0,1.3,1,2.7,2.5,2.8c0.7,0.1,1.5-0.2,2.1-0.7C77.7,191.1,78.1,190.3,78.1,189.5z"/>
</g>
<polygon class="st18" points="227.7,4.4 233,14 242.6,19.3 233,24.5 227.7,34.2 222.5,24.5 212.8,19.3 222.5,14 "/>
<text transform="matrix(1 0 0 1 455.0708 193.5903)" class="st27 st28 st29">R</text>
<circle class="st30" cx="458.1" cy="190.1" r="8.1"/>
</svg>
